<?xml version="1.0" standalone="no"?>
<!DOCTYPE svg PUBLIC "-//W3C//DTD SVG 20010904//EN"
 "http://www.w3.org/TR/2001/REC-SVG-20010904/DTD/svg10.dtd">
<svg version="1.0" xmlns="http://www.w3.org/2000/svg"
 width="500.000000pt" height="500.000000pt" viewBox="0 0 500.000000 500.000000"
 preserveAspectRatio="xMidYMid meet">

<g transform="translate(0.000000,500.000000) scale(0.100000,-0.100000)"
fill="#000000" stroke="none">
<path d="M2348 3940 c-47 -3 -89 -8 -93 -11 -11 -12 56 -79 89 -87 29 -8 32
-6 41 22 14 43 49 59 91 41 19 -8 49 -11 72 -8 34 5 42 2 61 -23 18 -23 21
-35 15 -68 l-6 -39 68 8 c101 11 116 9 137 -17 17 -20 18 -33 13 -103 -5 -64
-3 -84 9 -102 24 -35 71 -30 124 12 47 38 81 44 105 19 23 -22 20 -33 -19 -69
l-34 -33 42 0 c53 1 102 -24 127 -65 16 -25 20 -50 20 -121 l0 -89 75 -73 c65
-63 75 -78 75 -107 0 -26 -8 -43 -32 -66 -17 -17 -35 -31 -40 -31 -4 0 -14
-12 -22 -27 -13 -27 -13 -29 15 -53 17 -14 31 -36 33 -50 1 -14 13 -41 25 -60
28 -44 24 -117 -8 -161 l-22 -29 26 0 c27 0 65 -31 65 -53 0 -7 -5 -18 -12
-25 -9 -9 -38 13 -127 102 -64 62 -131 121 -150 131 l-34 17 8 -24 c4 -12 10
-41 12 -63 4 -31 17 -53 59 -97 46 -48 54 -53 54 -34 0 13 -3 25 -6 28 -3 4
-19 34 -34 67 -33 69 -25 84 10 18 13 -24 44 -58 71 -77 l49 -35 -41 -37 c-42
-39 -68 -48 -70 -25 -1 6 -4 1 -8 -13 -5 -14 -4 -33 1 -42 4 -9 8 -24 8 -32 0
-28 -17 -17 -35 24 -17 38 -17 41 -1 59 19 21 15 51 -9 71 -13 11 -15 7 -15
-23 0 -22 -6 -37 -15 -41 -9 -3 -15 -19 -15 -41 0 -19 -4 -35 -9 -35 -5 0 -12
-20 -15 -44 l-7 -45 -41 15 c-52 18 -108 18 -135 -1 -11 -8 -26 -35 -32 -62
-17 -69 -36 -92 -95 -119 -42 -19 -60 -35 -91 -84 l-39 -60 -335 1 c-328 0
-355 3 -253 29 45 12 51 25 32 76 -22 57 1 34 30 -30 l31 -68 37 7 c20 4 42
11 47 15 20 17 15 107 -10 196 -17 56 -22 90 -16 94 7 4 7 18 0 44 -6 21 -9
39 -7 41 2 2 23 -27 48 -64 25 -38 48 -64 51 -59 3 5 23 -14 45 -41 21 -28 40
-51 42 -51 2 0 1 3 -1 8 -3 4 -30 47 -61 96 -31 49 -56 93 -56 99 0 5 12 21
26 34 l26 24 42 -28 c52 -36 146 -131 146 -148 0 -8 7 -21 16 -30 15 -15 18
-13 39 17 28 41 23 49 -10 18 l-25 -23 -15 36 c-8 21 -20 37 -25 37 -13 0 -79
103 -87 133 -18 79 -20 75 21 39 20 -17 41 -32 46 -32 5 0 17 -14 25 -31 9
-17 19 -29 22 -26 6 7 -14 45 -43 80 -13 16 -24 32 -24 36 0 4 16 25 37 47
l36 39 13 -32 c8 -17 27 -40 44 -49 33 -20 39 -50 20 -100 -8 -19 -8 -30 0
-38 7 -7 10 -3 10 13 l0 24 18 -24 c10 -13 35 -55 56 -94 37 -68 75 -119 83
-111 3 2 -10 31 -26 65 -32 62 -31 72 3 46 11 -8 23 -15 27 -15 4 0 22 26 39
58 18 31 40 68 48 82 10 16 5 14 -12 -7 -35 -42 -57 -42 -80 0 -10 17 -41 55
-69 84 l-50 52 27 36 c24 31 29 33 42 21 8 -8 17 -29 20 -45 9 -43 21 -30 29
29 7 49 18 63 29 38 3 -7 3 -3 0 9 -3 13 -2 28 3 35 5 8 10 -8 14 -42 l5 -55
8 41 c6 29 17 49 38 64 l30 22 29 -34 c15 -18 28 -30 29 -26 0 11 -58 94 -77
109 -15 12 -15 10 1 -9 16 -18 16 -22 4 -22 -22 0 -40 24 -32 44 8 22 -18 21
-39 -1 -8 -10 -17 -29 -19 -42 -1 -14 -10 -27 -18 -29 -13 -5 -13 -3 -1 14 15
21 -30 -26 -96 -100 -39 -43 -45 -47 -61 -35 -64 52 -93 50 -134 -5 -18 -25
-40 -48 -48 -51 -8 -3 -11 -3 -7 1 8 8 -22 33 -40 34 -7 0 -25 -19 -40 -42
-56 -89 -76 -118 -83 -118 -3 0 -13 12 -21 26 -16 31 -137 134 -157 134 -8 0
-10 -5 -5 -12 4 -7 17 -49 29 -93 16 -57 23 -71 24 -50 l2 30 13 -30 c21 -44
82 -234 89 -275 5 -33 5 -33 -10 8 -11 29 -29 51 -58 71 -23 16 -48 37 -56 46
-12 14 -15 13 -26 -14 -7 -17 -18 -31 -24 -31 -14 0 -13 3 12 54 21 44 21 46
4 65 -10 11 -27 23 -37 26 -14 5 -19 16 -19 46 0 22 5 50 11 62 5 12 -8 2 -30
-23 -22 -25 -41 -40 -41 -33 0 6 4 14 10 18 5 3 7 12 4 19 -10 25 117 499 137
512 5 3 9 22 9 42 0 20 7 59 15 86 25 82 -8 93 -35 11 -9 -27 -25 -53 -35 -59
-11 -6 -25 -18 -31 -26 -10 -12 -14 -12 -28 -1 -10 9 -28 11 -47 7 -28 -5 -37
-1 -80 43 -55 54 -59 66 -26 75 15 4 32 27 53 71 l32 65 -23 18 c-13 9 -31 22
-40 27 -10 6 -17 23 -17 37 0 36 -21 53 -92 73 -60 17 -129 16 -148 -3 -6 -6
-13 -37 -17 -69 -5 -50 -9 -58 -28 -61 -17 -2 -27 -17 -44 -60 -43 -115 -99
-287 -99 -307 0 -31 27 -63 60 -70 17 -4 30 -8 30 -10 0 -1 -7 -20 -16 -41
-14 -34 -15 -47 -4 -102 15 -74 7 -172 -20 -253 -11 -30 -24 -84 -29 -119 -6
-36 -21 -79 -36 -101 -33 -51 -32 -62 10 -90 19 -13 35 -30 35 -36 0 -17 -84
-17 -146 -1 -44 12 -47 11 -65 -11 -11 -13 -22 -41 -25 -62 -6 -38 -8 -39 -46
-39 -32 0 -39 -3 -36 -17 3 -17 73 -18 1303 -18 1230 0 1300 1 1303 18 3 16
-15 17 -263 17 l-266 0 64 55 c165 140 280 304 343 491 161 481 -49 990 -521
1259 -154 88 -358 151 -520 161 -49 3 -101 6 -115 7 -14 2 -64 0 -112 -3z
m-308 -1032 c0 -7 -16 -71 -36 -143 -39 -147 -89 -336 -98 -377 -10 -42 -41
-37 -65 11 l-20 38 50 82 c69 112 81 142 66 169 -7 14 -48 40 -102 64 -49 23
-91 43 -93 44 -2 1 7 23 20 48 26 55 47 63 115 46 96 -23 97 -23 122 4 27 28
41 33 41 14z m-278 -288 l37 -11 -26 -62 c-15 -34 -37 -75 -50 -90 -13 -16
-23 -36 -23 -45 0 -19 38 -62 55 -62 7 0 20 -9 30 -20 15 -17 16 -22 4 -36 -8
-10 -29 -23 -46 -31 -30 -12 -33 -17 -33 -58 0 -38 -3 -45 -20 -45 -13 0 -26
-13 -39 -38 -18 -35 -23 -38 -51 -34 -17 2 -34 11 -37 18 -3 8 -11 14 -19 14
-18 0 -37 38 -36 73 1 35 27 113 65 197 17 36 40 93 53 128 41 114 55 124 136
102z m837 -66 c9 -10 -53 6 -63 17 -6 5 4 5 24 -1 18 -5 35 -12 39 -16z m-34
-24 c3 -5 2 -10 -4 -10 -5 0 -13 5 -16 10 -3 6 -2 10 4 10 5 0 13 -4 16 -10z
m-170 -10 c3 -5 2 -10 -4 -10 -5 0 -13 5 -16 10 -3 6 -2 10 4 10 5 0 13 -4 16
-10z m262 -112 c-3 -7 -5 -2 -5 12 0 14 2 19 5 13 2 -7 2 -19 0 -25z m497 -53
c21 -32 20 -52 -3 -65 -23 -12 -71 -14 -71 -2 0 4 9 21 20 37 11 17 17 38 14
47 -8 25 21 13 40 -17z m-1194 -15 c0 -5 -4 -10 -10 -10 -5 0 -10 5 -10 10 0
6 5 10 10 10 6 0 10 -4 10 -10z m-166 -287 c-6 -34 2 -45 41 -66 l30 -16 -62
-1 -63 0 10 25 c14 36 40 85 45 85 2 0 2 -12 -1 -27z m-239 -73 c4 -6 -11 -10
-37 -9 -36 1 -39 2 -18 9 36 11 48 11 55 0z m132 -6 c-3 -3 -12 -4 -19 -1 -8
3 -5 6 6 6 11 1 17 -2 13 -5z"/>
<path d="M3005 2677 c-22 -29 -46 -65 -53 -82 -15 -35 -7 -28 25 22 31 49 28
40 -35 -90 -56 -117 -63 -140 -32 -112 19 17 19 17 3 -24 -18 -46 -18 -46 20
-55 23 -6 27 -3 27 16 0 13 7 43 14 68 l15 45 0 -41 c1 -26 9 -51 22 -68 25
-32 34 -27 31 17 -5 50 14 90 37 82 33 -10 36 30 7 87 -32 62 -32 63 0 33 14
-13 23 -29 19 -34 -3 -6 -2 -11 4 -11 22 0 20 20 -4 49 -19 21 -24 36 -20 54
4 16 0 35 -10 51 -9 14 -14 30 -10 36 3 5 0 10 -7 9 -7 0 -31 -24 -53 -52z
m52 -59 c-3 -8 -6 -5 -6 6 -1 11 2 17 5 13 3 -3 4 -12 1 -19z m-14 -111 c7 4
6 -1 -2 -10 -19 -24 -21 -22 -20 16 1 23 3 26 6 9 3 -14 9 -20 16 -15z"/>
<path d="M2914 2538 c-11 -13 -28 -41 -37 -63 -16 -38 -16 -39 1 -16 25 35 64
101 59 101 -2 0 -12 -10 -23 -22z"/>
<path d="M2008 2478 c-31 -41 -41 -58 -34 -58 3 0 19 20 36 45 36 52 34 61 -2
13z"/>
<path d="M1730 1918 c0 -2 -2 -49 -3 -106 l-2 -102 30 0 30 0 -2 102 c-1 103
-1 103 -27 106 -14 2 -26 2 -26 0z"/>
<path d="M1821 1898 c1 -13 5 -34 9 -48 l8 -25 1 24 c1 20 10 12 61 -50 33
-40 60 -77 60 -81 0 -4 9 -8 20 -8 19 0 20 7 20 105 0 98 -1 105 -20 105 -18
0 -18 -2 -5 -41 8 -23 15 -53 15 -67 0 -26 -1 -26 -41 13 -22 22 -47 52 -55
68 -11 20 -22 27 -44 27 -25 0 -30 -4 -29 -22z"/>
<path d="M2045 1815 l0 -105 52 0 c69 0 99 13 119 51 20 40 13 93 -17 125 -28
30 -43 31 -28 3 15 -29 6 -111 -15 -143 -22 -34 -54 -34 -62 0 -10 39 4 116
26 147 l21 27 -48 0 -48 0 0 -105z"/>
<path d="M2265 1815 l0 -105 26 0 27 0 0 105 0 105 -26 0 -27 0 0 -105z"/>
<path d="M2351 1908 c0 -7 4 -22 8 -33 8 -20 8 -20 15 2 8 26 35 38 42 18 4
-8 4 -53 3 -100 l-4 -85 28 0 27 0 0 100 c0 55 4 100 8 100 13 0 42 -34 43
-51 1 -8 5 0 8 16 4 17 6 33 4 38 -2 4 -44 7 -94 7 -65 0 -89 -3 -88 -12z"/>
<path d="M2570 1918 c0 -2 -2 -49 -3 -106 l-2 -102 30 0 c30 0 30 1 26 46 -4
59 18 57 37 -4 13 -39 17 -42 49 -42 34 0 35 1 21 23 -45 68 -44 64 -15 87 15
12 27 28 27 36 0 21 -37 54 -61 54 -19 0 -19 -1 -5 -16 30 -30 11 -84 -29 -84
-22 0 -25 5 -25 33 0 18 7 43 16 55 15 22 14 22 -25 22 -23 0 -41 -1 -41 -2z"/>
<path d="M2775 1815 l0 -105 81 0 81 0 -5 30 -4 30 -26 -25 c-13 -14 -35 -25
-48 -25 -21 0 -24 5 -24 35 0 19 -1 38 -2 43 -4 15 34 13 53 -4 18 -17 19 -16
19 16 0 27 -3 31 -12 22 -7 -7 -25 -12 -41 -12 -22 0 -28 4 -23 16 3 9 6 29 6
46 0 28 2 30 28 24 15 -4 37 -18 50 -32 l22 -25 0 35 0 36 -77 0 -78 0 0 -105z"/>
<path d="M2975 1815 l0 -105 28 0 c28 0 28 1 22 48 l-6 47 25 -28 c14 -15 26
-37 26 -48 0 -16 7 -19 39 -19 l40 0 -35 51 c-19 28 -34 55 -34 59 0 5 -10 6
-22 3 -19 -5 -15 2 20 39 23 24 42 47 42 51 0 4 -11 7 -24 7 -18 0 -25 -7 -29
-28 -3 -16 -15 -39 -27 -53 l-21 -24 6 53 7 52 -29 0 -28 0 0 -105z"/>
<path d="M1827 1771 c-11 -52 -9 -61 14 -61 16 0 19 4 14 18 -4 9 -11 31 -14
47 l-7 30 -7 -34z"/>
<path d="M1540 1566 c0 -57 4 -96 10 -96 6 0 10 36 10 89 0 50 -4 93 -10 96
-6 4 -10 -28 -10 -89z"/>
<path d="M1150 1555 l0 -85 51 0 c31 0 48 4 44 10 -3 6 -24 10 -46 10 -38 0
-40 2 -37 28 3 23 9 28 43 33 l40 6 -42 2 c-41 1 -43 3 -43 31 0 28 2 30 39
30 22 0 43 5 46 10 4 6 -13 10 -44 10 l-51 0 0 -85z"/>
<path d="M2017 1565 c-19 -87 -20 -98 -8 -91 5 3 12 26 15 51 4 24 11 47 15
49 4 3 16 -19 27 -49 10 -30 21 -55 24 -55 3 0 14 25 24 55 11 30 23 52 27 49
4 -2 11 -25 15 -49 3 -25 10 -48 15 -51 13 -7 10 21 -10 101 l-17 70 -23 -62
c-13 -35 -27 -63 -31 -63 -4 0 -17 27 -29 60 -12 33 -23 60 -25 60 -2 0 -10
-34 -19 -75z"/>
<path d="M2680 1555 l0 -85 41 0 c24 0 38 4 34 10 -3 6 -17 10 -31 10 -23 0
-24 2 -24 75 0 43 -4 75 -10 75 -6 0 -10 -35 -10 -85z"/>
<path d="M3150 1563 c-7 -38 -15 -74 -18 -80 -2 -7 1 -13 6 -13 6 0 16 26 23
58 l12 57 26 -59 25 -59 27 59 26 59 13 -57 c7 -32 17 -58 23 -58 5 0 7 6 5
13 -3 6 -11 42 -18 80 -8 37 -17 67 -21 67 -3 0 -17 -27 -29 -60 -12 -33 -24
-60 -25 -60 -1 0 -13 27 -25 60 -12 33 -26 60 -29 60 -4 0 -13 -30 -21 -67z"/>
<path d="M2780 1610 c0 -5 5 -10 10 -10 6 0 10 5 10 10 0 6 -4 10 -10 10 -5 0
-10 -4 -10 -10z"/>
<path d="M1280 1573 c0 -5 7 -17 15 -27 13 -17 13 -23 -1 -44 -20 -31 -9 -43
12 -13 l16 22 15 -20 c8 -12 19 -21 24 -21 6 0 1 12 -9 28 -20 27 -20 28 0 55
11 15 15 27 9 27 -5 0 -17 -10 -25 -21 l-14 -21 -14 21 c-13 21 -28 28 -28 14z"/>
<path d="M1400 1493 l0 -83 -135 0 c-83 0 -135 -4 -135 -10 0 -7 442 -10 1305
-10 863 0 1305 3 1305 10 0 7 -395 10 -1165 10 l-1165 0 0 34 c0 34 1 35 34
29 29 -4 37 -1 52 22 16 25 16 30 3 54 -12 21 -22 26 -57 26 l-42 1 0 -83z
m86 41 c8 -31 -6 -47 -36 -42 -53 7 -47 68 6 68 17 0 25 -7 30 -26z"/>
<path d="M1606 1564 c-34 -33 -9 -94 38 -94 28 0 56 29 56 57 0 44 -63 69 -94
37z m72 -42 c-4 -37 -51 -44 -69 -11 -10 20 -9 25 11 41 30 24 63 8 58 -30z"/>
<path d="M1730 1524 c0 -30 5 -54 10 -54 6 0 10 18 10 40 0 27 5 43 15 46 23
9 18 22 -10 22 -24 0 -25 -4 -25 -54z"/>
<path d="M1817 1562 c-43 -47 6 -109 67 -86 28 11 17 21 -20 20 -22 -1 -39 4
-41 12 -3 8 9 12 41 12 50 0 60 15 30 44 -21 21 -57 20 -77 -2z m73 -22 c0 -6
-16 -10 -35 -10 -38 0 -46 13 -18 29 19 10 53 -2 53 -19z"/>
<path d="M2216 1564 c-34 -33 -9 -94 38 -94 28 0 56 29 56 57 0 44 -63 69 -94
37z m72 -42 c-4 -37 -51 -44 -69 -11 -10 20 -9 25 11 41 30 24 63 8 58 -30z"/>
<path d="M2340 1523 c0 -29 5 -53 10 -53 6 0 10 18 10 41 0 32 4 42 20 46 30
8 24 22 -10 21 -29 -1 -30 -2 -30 -55z"/>
<path d="M2423 1554 c-15 -24 -15 -29 -2 -53 17 -31 55 -38 84 -17 19 14 17
15 -24 13 -28 -1 -45 3 -48 11 -3 8 10 12 46 12 44 0 50 2 44 18 -16 47 -73
56 -100 16z m75 -11 c2 -9 -8 -13 -32 -13 -34 0 -44 8 -29 24 11 11 56 2 61
-11z"/>
<path d="M2780 1525 c0 -30 5 -55 10 -55 6 0 10 25 10 55 0 30 -4 55 -10 55
-5 0 -10 -25 -10 -55z"/>
<path d="M2830 1572 c0 -5 10 -32 21 -59 l22 -48 23 50 c25 56 28 65 16 65 -5
0 -15 -19 -23 -42 l-13 -41 -16 36 c-18 41 -30 56 -30 39z"/>
<path d="M2956 1564 c-34 -33 -9 -94 38 -94 13 0 29 6 35 14 9 11 4 13 -25 12
-22 -1 -39 4 -41 12 -3 8 9 12 41 12 50 0 60 15 28 43 -23 21 -56 22 -76 1z
m74 -24 c0 -6 -16 -10 -35 -10 -38 0 -46 13 -18 29 19 10 53 -2 53 -19z"/>
<path d="M3350 1565 c-19 -22 -15 -67 6 -82 28 -20 66 -12 83 18 13 24 13 29
-2 53 -20 30 -67 36 -87 11z m75 -16 c4 -5 4 -21 1 -35 -5 -17 -13 -24 -30
-24 -30 0 -49 23 -41 50 7 22 58 29 70 9z"/>
<path d="M3480 1524 c0 -30 5 -54 10 -54 6 0 10 18 10 40 0 27 5 43 15 46 23
9 18 22 -10 22 -24 0 -25 -4 -25 -54z"/>
<path d="M3567 1562 c-43 -47 6 -109 67 -86 28 11 17 21 -20 20 -22 -1 -39 4
-41 12 -3 8 9 12 41 12 50 0 60 15 30 44 -21 21 -57 20 -77 -2z m73 -22 c0 -6
-16 -10 -35 -10 -38 0 -46 13 -18 29 19 10 53 -2 53 -19z"/>
<path d="M2557 1473 c-7 -39 -1 -40 18 -4 13 26 13 31 1 31 -7 0 -16 -12 -19
-27z"/>
<path d="M3690 1480 c0 -5 7 -10 15 -10 8 0 15 5 15 10 0 6 -7 10 -15 10 -8 0
-15 -4 -15 -10z"/>
</g>
</svg>
