<?xml version="1.0" encoding="UTF-8"?>
<svg xmlns="http://www.w3.org/2000/svg" xmlns:xlink="http://www.w3.org/1999/xlink" width="3080px" height="3080px" viewBox="0 0 3080 3080" version="1.1">
<g id="surface1">
<path style=" stroke:none;fill-rule:nonzero;fill:rgb(0%,0%,0%);fill-opacity:1;" d="M 1446.363281 652.96875 C 1417.414062 654.800781 1391.546875 657.882812 1389.082031 659.734375 C 1382.296875 667.132812 1423.582031 708.398438 1443.898438 713.332031 C 1461.769531 718.25 1463.617188 717.015625 1469.164062 699.785156 C 1477.785156 673.28125 1499.347656 663.429688 1525.214844 674.519531 C 1536.917969 679.449219 1555.398438 681.296875 1569.570312 679.449219 C 1590.515625 676.363281 1595.4375 678.214844 1607.148438 693.617188 C 1618.230469 707.785156 1620.082031 715.183594 1616.382812 735.503906 L 1612.683594 759.53125 L 1654.582031 754.601562 C 1716.800781 747.816406 1726.03125 749.050781 1738.96875 765.066406 C 1749.4375 777.398438 1750.050781 785.398438 1746.984375 828.519531 C 1743.902344 867.949219 1745.132812 880.265625 1752.519531 891.347656 C 1767.296875 912.917969 1796.25 909.835938 1828.898438 883.96875 C 1857.851562 860.550781 1878.800781 856.851562 1893.585938 872.25 C 1907.75 885.800781 1905.898438 892.585938 1881.882812 914.769531 L 1860.933594 935.082031 L 1886.800781 935.082031 C 1919.453125 934.46875 1949.636719 949.867188 1965.03125 975.132812 C 1974.902344 990.53125 1977.363281 1005.933594 1977.363281 1049.667969 L 1977.363281 1104.484375 L 2023.5625 1149.453125 C 2063.601562 1188.265625 2069.769531 1197.503906 2069.769531 1215.363281 C 2069.769531 1231.382812 2064.835938 1241.851562 2050.050781 1256.015625 C 2039.582031 1266.496094 2028.484375 1275.117188 2025.402344 1275.117188 C 2022.949219 1275.117188 2016.785156 1282.515625 2011.851562 1291.75 C 2003.851562 1308.382812 2003.851562 1309.617188 2021.101562 1324.398438 C 2031.570312 1333.015625 2040.199219 1346.582031 2041.417969 1355.199219 C 2042.03125 1363.816406 2049.429688 1380.453125 2056.816406 1392.164062 C 2074.066406 1419.265625 2071.601562 1464.230469 2051.902344 1491.332031 L 2038.347656 1509.199219 L 2054.363281 1509.199219 C 2071 1509.199219 2094.398438 1528.296875 2094.398438 1541.851562 C 2094.398438 1546.164062 2091.316406 1552.933594 2087 1557.25 C 2081.464844 1562.800781 2063.601562 1549.230469 2008.785156 1494.414062 C 1969.347656 1456.214844 1928.082031 1419.882812 1916.382812 1413.71875 L 1895.429688 1403.25 L 1900.363281 1418.03125 C 1902.816406 1425.417969 1906.519531 1443.28125 1907.75 1456.835938 C 1910.214844 1475.933594 1918.214844 1489.484375 1944.101562 1516.597656 C 1972.429688 1546.164062 1977.363281 1549.230469 1977.363281 1537.535156 C 1977.363281 1529.53125 1975.515625 1522.132812 1973.667969 1520.28125 C 1971.816406 1517.816406 1961.96875 1499.347656 1952.71875 1479.015625 C 1932.398438 1436.515625 1937.316406 1427.265625 1958.882812 1467.933594 C 1966.882812 1482.71875 1985.984375 1503.652344 2002.617188 1515.363281 L 2032.800781 1536.917969 L 2007.546875 1559.71875 C 1981.667969 1583.734375 1965.652344 1589.28125 1964.417969 1575.117188 C 1963.800781 1571.414062 1961.96875 1574.496094 1959.496094 1583.117188 C 1956.414062 1591.75 1957.03125 1603.449219 1960.117188 1609 C 1962.582031 1614.535156 1965.03125 1623.785156 1965.03125 1628.703125 C 1965.03125 1645.949219 1954.570312 1639.183594 1943.480469 1613.917969 C 1933 1590.515625 1933 1588.667969 1942.867188 1577.582031 C 1954.570312 1564.636719 1952.097656 1546.164062 1937.316406 1533.835938 C 1929.316406 1527.066406 1928.082031 1529.53125 1928.082031 1548 C 1928.082031 1561.5625 1924.382812 1570.800781 1918.835938 1573.265625 C 1913.296875 1575.117188 1909.601562 1584.96875 1909.601562 1598.519531 C 1909.601562 1610.214844 1907.132812 1620.082031 1904.050781 1620.082031 C 1900.984375 1620.082031 1896.667969 1632.398438 1894.816406 1647.183594 L 1890.503906 1674.898438 L 1865.25 1665.667969 C 1833.214844 1654.582031 1798.71875 1654.582031 1782.082031 1666.28125 C 1775.316406 1671.199219 1766.066406 1687.835938 1762.382812 1704.46875 C 1751.898438 1746.984375 1740.199219 1761.148438 1703.851562 1777.785156 C 1677.984375 1789.480469 1666.902344 1799.332031 1647.800781 1829.519531 L 1623.785156 1866.480469 L 1417.414062 1865.867188 C 1215.363281 1865.867188 1198.734375 1864.015625 1261.570312 1848 C 1289.28125 1840.601562 1292.984375 1832.601562 1281.28125 1801.183594 C 1267.734375 1766.066406 1281.902344 1780.230469 1299.769531 1819.667969 L 1318.851562 1861.550781 L 1341.652344 1857.230469 C 1353.96875 1854.785156 1367.519531 1850.464844 1370.601562 1848 C 1382.917969 1837.53125 1379.835938 1782.082031 1364.4375 1727.265625 C 1353.96875 1692.769531 1350.882812 1671.816406 1354.585938 1669.363281 C 1358.902344 1666.902344 1358.902344 1658.265625 1354.585938 1642.25 C 1350.882812 1629.316406 1349.03125 1618.230469 1350.265625 1617 C 1351.503906 1615.769531 1364.4375 1633.636719 1379.835938 1656.417969 C 1395.230469 1679.835938 1409.402344 1695.851562 1411.25 1692.769531 C 1413.097656 1689.683594 1425.417969 1701.398438 1438.984375 1718.015625 C 1451.917969 1735.265625 1463.617188 1749.4375 1464.851562 1749.4375 C 1466.082031 1749.4375 1465.464844 1747.597656 1464.230469 1744.515625 C 1462.382812 1742.050781 1445.75 1715.5625 1426.652344 1685.382812 C 1407.5625 1655.199219 1392.164062 1628.082031 1392.164062 1624.398438 C 1392.164062 1621.316406 1399.550781 1611.453125 1408.183594 1603.449219 L 1424.199219 1588.667969 L 1450.066406 1605.917969 C 1482.101562 1628.082031 1540 1686.601562 1540 1697.082031 C 1540 1702 1544.316406 1710.015625 1549.851562 1715.5625 C 1559.101562 1724.800781 1560.949219 1723.570312 1573.882812 1705.082031 C 1591.132812 1679.835938 1588.050781 1674.898438 1567.71875 1694 L 1552.316406 1708.164062 L 1543.082031 1686 C 1538.148438 1673.050781 1530.769531 1663.199219 1527.683594 1663.199219 C 1519.667969 1663.199219 1479.015625 1599.75 1474.082031 1581.265625 C 1463 1532.601562 1461.769531 1535.066406 1487.015625 1557.25 C 1499.347656 1567.71875 1512.28125 1576.96875 1515.363281 1576.96875 C 1518.4375 1576.96875 1525.835938 1585.585938 1530.769531 1596.050781 C 1536.296875 1606.53125 1542.464844 1613.917969 1544.316406 1612.066406 C 1548 1607.769531 1535.683594 1584.347656 1517.816406 1562.800781 C 1509.816406 1552.933594 1503.03125 1543.082031 1503.03125 1540.617188 C 1503.03125 1538.148438 1512.902344 1525.214844 1525.835938 1511.667969 L 1548 1487.636719 L 1556.015625 1507.347656 C 1560.949219 1517.816406 1572.652344 1532 1583.117188 1537.535156 C 1603.449219 1549.851562 1607.148438 1568.332031 1595.4375 1599.132812 C 1590.515625 1610.835938 1590.515625 1617.617188 1595.4375 1622.546875 C 1599.75 1626.851562 1601.601562 1624.398438 1601.601562 1614.535156 L 1601.601562 1599.75 L 1612.683594 1614.535156 C 1618.851562 1622.546875 1634.25 1648.414062 1647.183594 1672.4375 C 1669.984375 1714.332031 1693.382812 1745.75 1698.316406 1740.816406 C 1700.164062 1739.585938 1692.148438 1721.71875 1682.296875 1700.785156 C 1662.585938 1662.585938 1663.199219 1656.417969 1684.148438 1672.4375 C 1690.917969 1677.363281 1698.316406 1681.683594 1700.785156 1681.683594 C 1703.230469 1681.683594 1714.332031 1665.667969 1724.800781 1645.949219 C 1735.882812 1626.851562 1749.4375 1604.066406 1754.363281 1595.4375 C 1760.53125 1585.585938 1757.449219 1586.816406 1746.984375 1599.75 C 1725.414062 1625.617188 1711.867188 1625.617188 1697.703125 1599.75 C 1691.535156 1589.28125 1672.4375 1565.867188 1655.199219 1548 L 1624.398438 1515.984375 L 1641.015625 1493.800781 C 1655.800781 1474.703125 1658.882812 1473.46875 1666.902344 1480.867188 C 1671.816406 1485.800781 1677.363281 1498.734375 1679.214844 1508.585938 C 1684.769531 1535.066406 1692.148438 1527.066406 1697.082031 1490.71875 C 1701.398438 1460.535156 1708.164062 1451.917969 1714.949219 1467.316406 C 1716.800781 1471.617188 1716.800781 1469.164062 1714.949219 1461.769531 C 1713.101562 1453.769531 1713.71875 1444.519531 1716.800781 1440.199219 C 1719.867188 1435.28125 1722.949219 1445.132812 1725.414062 1466.082031 L 1728.496094 1499.96875 L 1733.417969 1474.703125 C 1737.117188 1456.835938 1743.902344 1444.519531 1756.835938 1435.28125 L 1775.316406 1421.734375 L 1793.183594 1442.667969 C 1802.414062 1453.769531 1810.417969 1461.148438 1811.03125 1458.683594 C 1811.03125 1451.917969 1775.316406 1400.785156 1763.601562 1391.546875 C 1754.363281 1384.148438 1754.363281 1385.382812 1764.214844 1397.082031 C 1774.082031 1408.183594 1774.082031 1410.636719 1766.683594 1410.636719 C 1753.132812 1410.636719 1742.050781 1395.851562 1746.984375 1383.535156 C 1751.898438 1369.984375 1735.882812 1370.601562 1722.949219 1384.148438 C 1718.015625 1390.316406 1712.480469 1402.015625 1711.25 1410.015625 C 1710.636719 1418.652344 1705.082031 1426.652344 1700.164062 1427.882812 C 1692.148438 1430.96875 1692.148438 1429.734375 1699.546875 1419.265625 C 1708.785156 1406.332031 1681.066406 1435.28125 1640.402344 1480.867188 C 1616.382812 1507.347656 1612.683594 1509.816406 1602.835938 1502.417969 C 1563.402344 1470.398438 1545.546875 1471.617188 1520.28125 1505.503906 C 1509.199219 1520.898438 1495.652344 1535.066406 1490.71875 1536.917969 C 1485.800781 1538.769531 1483.949219 1538.769531 1486.402344 1536.296875 C 1491.332031 1531.382812 1472.851562 1515.984375 1461.769531 1515.363281 C 1457.453125 1515.363281 1446.363281 1527.066406 1437.132812 1541.230469 C 1402.636719 1596.050781 1390.316406 1613.917969 1386 1613.917969 C 1384.148438 1613.917969 1378 1606.53125 1373.066406 1597.898438 C 1363.199219 1578.800781 1288.667969 1515.363281 1276.347656 1515.363281 C 1271.417969 1515.363281 1270.199219 1518.4375 1273.265625 1522.75 C 1275.734375 1527.066406 1283.75 1552.933594 1291.132812 1580.03125 C 1301 1615.148438 1305.296875 1623.785156 1305.917969 1610.835938 L 1307.148438 1592.363281 L 1315.164062 1610.835938 C 1328.101562 1637.949219 1365.667969 1754.984375 1369.984375 1780.230469 C 1373.066406 1800.570312 1373.066406 1800.570312 1363.816406 1775.316406 C 1357.050781 1757.449219 1345.96875 1743.902344 1328.101562 1731.582031 C 1313.933594 1721.71875 1298.53125 1708.785156 1293.601562 1703.230469 C 1286.199219 1694.617188 1284.363281 1695.230469 1277.585938 1711.867188 C 1273.265625 1722.332031 1266.496094 1730.96875 1262.800781 1730.96875 C 1254.183594 1730.96875 1254.800781 1729.117188 1270.199219 1697.703125 C 1283.132812 1670.597656 1283.132812 1669.363281 1272.652344 1657.652344 C 1266.496094 1650.882812 1256.015625 1643.484375 1249.867188 1641.636719 C 1241.230469 1638.5625 1238.164062 1631.785156 1238.164062 1613.296875 C 1238.164062 1599.75 1241.230469 1582.503906 1244.933594 1575.117188 C 1248.015625 1567.71875 1240 1573.882812 1226.453125 1589.28125 C 1212.898438 1604.683594 1201.199219 1613.917969 1201.199219 1609.601562 C 1201.199219 1605.917969 1203.667969 1600.984375 1207.363281 1598.519531 C 1210.4375 1596.667969 1211.667969 1591.132812 1209.816406 1586.816406 C 1203.667969 1571.414062 1281.902344 1279.429688 1294.214844 1271.417969 C 1297.296875 1269.582031 1299.769531 1257.867188 1299.769531 1245.550781 C 1299.769531 1233.230469 1304.066406 1209.199219 1309 1192.582031 C 1324.398438 1142.066406 1304.066406 1135.28125 1287.4375 1185.800781 C 1281.902344 1202.429688 1272.03125 1218.449219 1265.882812 1222.148438 C 1259.097656 1225.835938 1250.480469 1233.230469 1246.785156 1238.164062 C 1240.617188 1245.550781 1238.164062 1245.550781 1229.535156 1238.785156 C 1223.382812 1233.230469 1212.28125 1232 1200.585938 1234.464844 C 1183.332031 1237.546875 1177.800781 1235.082031 1151.296875 1207.984375 C 1117.417969 1174.71875 1114.96875 1167.316406 1135.28125 1161.785156 C 1144.53125 1159.316406 1155 1145.148438 1167.933594 1118.03125 L 1187.652344 1078 L 1173.480469 1066.917969 C 1165.46875 1061.363281 1154.382812 1053.363281 1148.835938 1050.28125 C 1142.683594 1046.585938 1138.363281 1036.117188 1138.363281 1027.484375 C 1138.363281 1005.316406 1125.429688 994.835938 1081.703125 982.519531 C 1044.734375 972.050781 1002.230469 972.667969 990.53125 984.363281 C 986.835938 988.066406 982.519531 1007.164062 980.050781 1026.867188 C 976.984375 1057.667969 974.515625 1062.601562 962.800781 1064.449219 C 952.332031 1065.683594 946.183594 1074.917969 935.703125 1101.402344 C 909.214844 1172.25 874.71875 1278.199219 874.71875 1290.519531 C 874.71875 1309.617188 891.347656 1329.332031 911.683594 1333.636719 C 922.148438 1336.097656 930.164062 1338.570312 930.164062 1339.800781 C 930.164062 1340.414062 925.851562 1352.117188 920.296875 1365.050781 C 911.683594 1386 911.066406 1394 917.835938 1427.882812 C 927.082031 1473.46875 922.148438 1533.835938 905.519531 1583.734375 C 898.75 1602.214844 890.734375 1635.480469 887.652344 1657.03125 C 883.96875 1679.214844 874.71875 1705.703125 865.480469 1719.25 C 845.148438 1750.667969 845.769531 1757.449219 871.636719 1774.703125 C 883.347656 1782.703125 893.199219 1793.183594 893.199219 1796.867188 C 893.199219 1807.347656 841.453125 1807.347656 803.265625 1797.484375 C 776.164062 1790.101562 774.316406 1790.71875 763.214844 1804.265625 C 756.449219 1812.265625 749.667969 1829.519531 747.816406 1842.453125 C 744.132812 1865.867188 742.902344 1866.480469 719.484375 1866.480469 C 699.785156 1866.480469 695.464844 1868.332031 697.316406 1876.949219 C 699.164062 1887.417969 742.28125 1888.03125 1499.96875 1888.03125 C 2257.636719 1888.03125 2300.769531 1887.417969 2302.601562 1876.949219 C 2304.453125 1867.101562 2293.363281 1866.480469 2140.601562 1866.480469 L 1976.75 1866.480469 L 2016.164062 1832.601562 C 2117.800781 1746.363281 2188.652344 1645.332031 2227.453125 1530.148438 C 2326.636719 1233.851562 2197.265625 920.296875 1906.519531 754.601562 C 1811.652344 700.398438 1686 661.585938 1586.199219 655.417969 C 1556.015625 653.582031 1523.984375 651.734375 1515.363281 651.117188 C 1506.734375 649.882812 1475.933594 651.117188 1446.363281 652.96875 Z M 1256.636719 1288.667969 C 1256.636719 1292.984375 1246.785156 1332.402344 1234.464844 1376.769531 C 1210.4375 1467.316406 1179.636719 1583.734375 1174.101562 1609 C 1167.933594 1634.867188 1148.835938 1631.785156 1134.050781 1602.214844 L 1121.734375 1578.800781 L 1152.535156 1528.296875 C 1195.03125 1459.296875 1202.429688 1440.816406 1193.199219 1424.199219 C 1188.882812 1415.570312 1163.617188 1399.550781 1130.363281 1384.769531 C 1100.183594 1370.601562 1074.296875 1358.28125 1073.066406 1357.667969 C 1071.835938 1357.050781 1077.382812 1343.496094 1085.398438 1328.101562 C 1101.402344 1294.214844 1114.347656 1289.28125 1156.230469 1299.769531 C 1215.363281 1313.933594 1215.984375 1313.933594 1231.382812 1297.296875 C 1248.015625 1280.050781 1256.636719 1276.96875 1256.636719 1288.667969 Z M 1085.398438 1466.082031 L 1108.183594 1472.851562 L 1092.164062 1511.050781 C 1082.933594 1532 1069.382812 1557.25 1061.363281 1566.484375 C 1053.363281 1576.347656 1047.199219 1588.667969 1047.199219 1594.199219 C 1047.199219 1605.917969 1070.601562 1632.398438 1081.082031 1632.398438 C 1085.398438 1632.398438 1093.398438 1637.949219 1099.5625 1644.71875 C 1108.800781 1655.199219 1109.414062 1658.265625 1102.015625 1666.902344 C 1097.101562 1673.050781 1084.164062 1681.066406 1073.683594 1686 C 1055.199219 1693.382812 1053.363281 1696.464844 1053.363281 1721.71875 C 1053.363281 1745.132812 1051.515625 1749.4375 1041.03125 1749.4375 C 1033.03125 1749.4375 1025.015625 1757.449219 1017.015625 1772.851562 C 1005.933594 1794.402344 1002.851562 1796.25 985.601562 1793.800781 C 975.132812 1792.5625 964.652344 1787.015625 962.800781 1782.703125 C 960.96875 1777.785156 956.03125 1774.082031 951.097656 1774.082031 C 940.015625 1774.082031 928.316406 1750.667969 928.933594 1729.117188 C 929.546875 1707.550781 945.5625 1659.503906 968.96875 1607.769531 C 979.4375 1585.585938 993.601562 1550.46875 1001.617188 1528.917969 C 1026.867188 1458.683594 1035.496094 1452.53125 1085.398438 1466.082031 Z M 1600.984375 1506.734375 C 1606.53125 1512.902344 1568.332031 1503.03125 1562.183594 1496.265625 C 1558.480469 1493.183594 1564.636719 1493.183594 1576.96875 1496.882812 C 1588.050781 1499.96875 1598.519531 1504.265625 1600.984375 1506.734375 Z M 1580.03125 1521.519531 C 1581.882812 1524.601562 1581.265625 1527.683594 1577.582031 1527.683594 C 1574.496094 1527.683594 1569.570312 1524.601562 1567.71875 1521.519531 C 1565.867188 1517.816406 1566.484375 1515.363281 1570.183594 1515.363281 C 1573.265625 1515.363281 1578.199219 1517.816406 1580.03125 1521.519531 Z M 1475.316406 1527.683594 C 1477.164062 1530.769531 1476.550781 1533.835938 1472.851562 1533.835938 C 1469.785156 1533.835938 1464.851562 1530.769531 1463 1527.683594 C 1461.148438 1523.984375 1461.769531 1521.519531 1465.464844 1521.519531 C 1468.546875 1521.519531 1473.46875 1523.984375 1475.316406 1527.683594 Z M 1636.71875 1596.667969 C 1634.867188 1600.984375 1633.636719 1597.898438 1633.636719 1589.28125 C 1633.636719 1580.652344 1634.867188 1577.582031 1636.71875 1581.265625 C 1637.949219 1585.585938 1637.949219 1592.984375 1636.71875 1596.667969 Z M 1942.867188 1629.316406 C 1955.800781 1649.03125 1955.183594 1661.347656 1941.015625 1669.363281 C 1926.851562 1676.75 1897.28125 1677.984375 1897.28125 1670.597656 C 1897.28125 1668.132812 1902.816406 1657.652344 1909.601562 1647.800781 C 1916.382812 1637.332031 1920.066406 1624.398438 1918.214844 1618.851562 C 1913.296875 1603.449219 1931.164062 1610.835938 1942.867188 1629.316406 Z M 1207.363281 1638.5625 C 1207.363281 1641.636719 1204.902344 1644.71875 1201.199219 1644.71875 C 1198.117188 1644.71875 1195.03125 1641.636719 1195.03125 1638.5625 C 1195.03125 1634.867188 1198.117188 1632.398438 1201.199219 1632.398438 C 1204.902344 1632.398438 1207.363281 1634.867188 1207.363281 1638.5625 Z M 1105.097656 1815.347656 C 1101.402344 1836.296875 1106.332031 1843.066406 1130.363281 1856 L 1148.835938 1865.867188 L 1110.652344 1866.480469 L 1071.835938 1866.480469 L 1078 1851.082031 C 1086.617188 1828.898438 1102.636719 1798.71875 1105.71875 1798.71875 C 1106.949219 1798.71875 1106.949219 1806.117188 1105.097656 1815.347656 Z M 957.882812 1860.316406 C 960.347656 1864.015625 951.097656 1866.480469 935.082031 1865.867188 C 912.917969 1865.25 911.066406 1864.636719 924 1860.316406 C 946.183594 1853.546875 953.570312 1853.546875 957.882812 1860.316406 Z M 1039.199219 1864.015625 C 1037.347656 1865.867188 1031.800781 1866.480469 1027.484375 1864.636719 C 1022.5625 1862.785156 1024.402344 1860.933594 1031.183594 1860.933594 C 1037.96875 1860.316406 1041.652344 1862.164062 1039.199219 1864.015625 Z M 1039.199219 1864.015625 "/>
<path style=" stroke:none;fill-rule:nonzero;fill:rgb(0%,0%,0%);fill-opacity:1;" d="M 1851.082031 1430.96875 C 1837.53125 1448.835938 1822.75 1471 1818.429688 1481.480469 C 1809.199219 1503.03125 1814.117188 1498.734375 1833.835938 1467.933594 C 1852.933594 1437.75 1851.082031 1443.28125 1812.265625 1523.363281 C 1777.785156 1595.4375 1773.464844 1609.601562 1792.5625 1592.363281 C 1804.265625 1581.882812 1804.265625 1581.882812 1794.402344 1607.148438 C 1783.316406 1635.480469 1783.316406 1635.480469 1806.734375 1641.015625 C 1820.902344 1644.71875 1823.363281 1642.867188 1823.363281 1631.164062 C 1823.363281 1623.164062 1827.667969 1604.683594 1831.984375 1589.28125 L 1841.214844 1561.5625 L 1841.214844 1586.816406 C 1841.835938 1602.835938 1846.769531 1618.230469 1854.785156 1628.703125 C 1870.183594 1648.414062 1875.71875 1645.332031 1873.867188 1618.230469 C 1870.800781 1587.429688 1882.496094 1562.800781 1896.667969 1567.71875 C 1917 1573.882812 1918.835938 1549.230469 1900.984375 1514.132812 C 1881.265625 1475.933594 1881.265625 1475.316406 1900.984375 1493.800781 C 1909.601562 1501.800781 1915.148438 1511.667969 1912.683594 1514.75 C 1910.835938 1518.4375 1911.449219 1521.519531 1915.148438 1521.519531 C 1928.703125 1521.519531 1927.464844 1509.199219 1912.683594 1491.332031 C 1900.984375 1478.398438 1897.902344 1469.164062 1900.363281 1458.066406 C 1902.816406 1448.214844 1900.363281 1436.515625 1894.199219 1426.652344 C 1888.652344 1418.03125 1885.582031 1408.183594 1888.03125 1404.480469 C 1889.882812 1401.398438 1888.03125 1398.316406 1883.734375 1398.933594 C 1879.414062 1398.933594 1864.636719 1413.71875 1851.082031 1430.96875 Z M 1883.117188 1467.316406 C 1881.265625 1472.230469 1879.414062 1470.398438 1879.414062 1463.617188 C 1878.800781 1456.835938 1880.652344 1453.148438 1882.496094 1455.601562 C 1884.347656 1457.453125 1884.96875 1463 1883.117188 1467.316406 Z M 1874.484375 1535.683594 C 1878.800781 1533.214844 1878.183594 1536.296875 1873.25 1541.851562 C 1861.550781 1556.636719 1860.316406 1555.398438 1860.933594 1532 C 1861.550781 1517.816406 1862.785156 1515.984375 1864.636719 1526.449219 C 1866.480469 1535.066406 1870.183594 1538.769531 1874.484375 1535.683594 Z M 1874.484375 1535.683594 "/>
<path style=" stroke:none;fill-rule:nonzero;fill:rgb(0%,0%,0%);fill-opacity:1;" d="M 1795.015625 1516.597656 C 1788.25 1524.601562 1777.785156 1541.851562 1772.230469 1555.398438 C 1762.382812 1578.800781 1762.382812 1579.417969 1772.851562 1565.25 C 1788.25 1543.703125 1812.265625 1503.03125 1809.199219 1503.03125 C 1807.96875 1503.03125 1801.800781 1509.199219 1795.015625 1516.597656 Z M 1795.015625 1516.597656 "/>
<path style=" stroke:none;fill-rule:nonzero;fill:rgb(0%,0%,0%);fill-opacity:1;" d="M 1236.933594 1553.550781 C 1217.835938 1578.800781 1211.667969 1589.28125 1215.984375 1589.28125 C 1217.835938 1589.28125 1227.683594 1576.96875 1238.164062 1561.5625 C 1260.332031 1529.53125 1259.097656 1523.984375 1236.933594 1553.550781 Z M 1236.933594 1553.550781 "/>
<path style=" stroke:none;fill-rule:nonzero;fill:rgb(0%,0%,0%);fill-opacity:1;" d="M 1065.683594 1898.515625 C 1065.683594 1899.75 1064.449219 1928.703125 1063.835938 1963.800781 L 1062.601562 2026.636719 L 1099.5625 2026.636719 L 1098.332031 1963.800781 C 1097.71875 1900.363281 1097.71875 1900.363281 1081.703125 1898.515625 C 1073.066406 1897.28125 1065.683594 1897.28125 1065.683594 1898.515625 Z M 1065.683594 1898.515625 "/>
<path style=" stroke:none;fill-rule:nonzero;fill:rgb(0%,0%,0%);fill-opacity:1;" d="M 1121.734375 1910.835938 C 1122.347656 1918.835938 1124.816406 1931.785156 1127.28125 1940.398438 L 1132.199219 1955.800781 L 1132.816406 1941.015625 C 1133.4375 1928.703125 1138.984375 1933.617188 1170.398438 1971.816406 C 1190.734375 1996.453125 1207.363281 2019.25 1207.363281 2021.71875 C 1207.363281 2024.183594 1212.898438 2026.636719 1219.683594 2026.636719 C 1231.382812 2026.636719 1232 2022.332031 1232 1961.96875 C 1232 1901.597656 1231.382812 1897.28125 1219.683594 1897.28125 C 1208.597656 1897.28125 1208.597656 1898.515625 1216.601562 1922.535156 C 1221.53125 1936.703125 1225.835938 1955.183594 1225.835938 1963.800781 C 1225.835938 1979.816406 1225.214844 1979.816406 1200.585938 1955.800781 C 1187.03125 1942.25 1171.636719 1923.769531 1166.703125 1913.917969 C 1159.933594 1901.597656 1153.148438 1897.28125 1139.601562 1897.28125 C 1124.199219 1897.28125 1121.117188 1899.75 1121.734375 1910.835938 Z M 1121.734375 1910.835938 "/>
<path style=" stroke:none;fill-rule:nonzero;fill:rgb(0%,0%,0%);fill-opacity:1;" d="M 1259.71875 1961.96875 L 1259.71875 2026.636719 L 1291.75 2026.636719 C 1334.25 2026.636719 1352.734375 2018.636719 1365.050781 1995.214844 C 1377.382812 1970.585938 1373.066406 1937.933594 1354.585938 1918.214844 C 1337.332031 1899.75 1328.101562 1899.132812 1337.332031 1916.382812 C 1346.582031 1934.230469 1341.03125 1984.75 1328.101562 2004.464844 C 1314.546875 2025.402344 1294.835938 2025.402344 1289.898438 2004.464844 C 1283.75 1980.4375 1292.363281 1933 1305.917969 1913.917969 L 1318.851562 1897.28125 L 1259.71875 1897.28125 Z M 1259.71875 1961.96875 "/>
<path style=" stroke:none;fill-rule:nonzero;fill:rgb(0%,0%,0%);fill-opacity:1;" d="M 1395.230469 1961.96875 L 1395.230469 2026.636719 L 1427.882812 2026.636719 L 1427.882812 1897.28125 L 1395.230469 1897.28125 Z M 1395.230469 1961.96875 "/>
<path style=" stroke:none;fill-rule:nonzero;fill:rgb(0%,0%,0%);fill-opacity:1;" d="M 1448.214844 1904.667969 C 1448.214844 1908.984375 1450.683594 1918.214844 1453.148438 1925 C 1458.066406 1937.316406 1458.066406 1937.316406 1462.382812 1923.769531 C 1467.316406 1907.75 1483.949219 1900.363281 1488.25 1912.683594 C 1490.71875 1917.601562 1490.71875 1945.332031 1490.097656 1974.28125 L 1487.636719 2026.636719 L 1521.519531 2026.636719 L 1521.519531 1965.03125 C 1521.519531 1931.164062 1523.984375 1903.4375 1526.449219 1903.4375 C 1534.453125 1903.4375 1552.316406 1924.382812 1552.933594 1934.851562 C 1553.550781 1939.785156 1556.015625 1934.851562 1557.867188 1925 C 1560.332031 1914.53125 1561.5625 1904.667969 1560.332031 1901.597656 C 1559.101562 1899.132812 1533.214844 1897.28125 1502.417969 1897.28125 C 1462.382812 1897.28125 1447.601562 1899.132812 1448.214844 1904.667969 Z M 1448.214844 1904.667969 "/>
<path style=" stroke:none;fill-rule:nonzero;fill:rgb(0%,0%,0%);fill-opacity:1;" d="M 1583.117188 1898.515625 C 1583.117188 1899.75 1581.882812 1928.703125 1581.265625 1963.800781 L 1580.03125 2026.636719 L 1598.519531 2026.636719 C 1617 2026.636719 1617 2026.015625 1614.535156 1998.296875 C 1612.066406 1961.96875 1625.617188 1963.199219 1637.332031 2000.769531 C 1645.332031 2024.800781 1647.800781 2026.636719 1667.515625 2026.636719 C 1688.453125 2026.636719 1689.066406 2026.015625 1680.449219 2012.46875 C 1652.734375 1970.585938 1653.347656 1973.050781 1671.199219 1958.882812 C 1680.449219 1951.484375 1687.835938 1941.636719 1687.835938 1936.703125 C 1687.835938 1923.769531 1665.050781 1903.4375 1650.265625 1903.4375 C 1638.5625 1903.4375 1638.5625 1904.050781 1647.183594 1913.296875 C 1665.667969 1931.785156 1653.96875 1965.03125 1629.316406 1965.03125 C 1615.769531 1965.03125 1613.917969 1961.96875 1613.917969 1944.71875 C 1613.917969 1933.617188 1618.230469 1918.214844 1623.785156 1910.835938 C 1633.015625 1897.28125 1632.398438 1897.28125 1608.382812 1897.28125 C 1594.199219 1897.28125 1583.117188 1897.902344 1583.117188 1898.515625 Z M 1583.117188 1898.515625 "/>
<path style=" stroke:none;fill-rule:nonzero;fill:rgb(0%,0%,0%);fill-opacity:1;" d="M 1709.398438 1961.96875 L 1709.398438 2026.636719 L 1809.199219 2026.636719 L 1806.117188 2008.164062 L 1803.652344 1989.683594 L 1787.636719 2005.082031 C 1779.617188 2013.703125 1766.066406 2020.480469 1758.066406 2020.480469 C 1745.132812 2020.480469 1743.28125 2017.398438 1743.28125 1998.917969 C 1743.28125 1987.214844 1742.667969 1975.515625 1742.050781 1972.429688 C 1739.585938 1963.199219 1763 1964.417969 1774.703125 1974.902344 C 1785.785156 1985.363281 1786.398438 1984.75 1786.398438 1965.03125 C 1786.398438 1948.402344 1784.550781 1945.949219 1779 1951.484375 C 1774.703125 1955.800781 1763.601562 1958.882812 1753.75 1958.882812 C 1740.199219 1958.882812 1736.503906 1956.414062 1739.585938 1949.015625 C 1741.429688 1943.480469 1743.28125 1931.164062 1743.28125 1920.683594 C 1743.28125 1903.4375 1744.515625 1902.199219 1760.53125 1905.898438 C 1769.769531 1908.363281 1783.316406 1917 1791.332031 1925.617188 L 1804.882812 1941.015625 L 1804.882812 1897.28125 L 1709.398438 1897.28125 Z M 1709.398438 1961.96875 "/>
<path style=" stroke:none;fill-rule:nonzero;fill:rgb(0%,0%,0%);fill-opacity:1;" d="M 1832.601562 1961.96875 L 1832.601562 2026.636719 L 1849.851562 2026.636719 C 1867.101562 2026.636719 1867.101562 2026.015625 1863.398438 1997.066406 L 1859.703125 1968.117188 L 1875.097656 1985.363281 C 1883.734375 1994.601562 1891.117188 2008.164062 1891.117188 2014.933594 C 1891.117188 2024.800781 1895.429688 2026.636719 1915.148438 2026.636719 L 1939.785156 2026.636719 L 1918.214844 1995.214844 C 1906.519531 1977.984375 1897.28125 1961.347656 1897.28125 1958.882812 C 1897.28125 1955.800781 1891.117188 1955.183594 1883.734375 1957.03125 C 1872.015625 1960.117188 1874.484375 1955.800781 1896.050781 1933 C 1910.214844 1918.214844 1921.917969 1904.050781 1921.917969 1901.597656 C 1921.917969 1899.132812 1915.148438 1897.28125 1907.132812 1897.28125 C 1896.050781 1897.28125 1891.734375 1901.597656 1889.265625 1914.53125 C 1887.417969 1924.382812 1880.03125 1938.550781 1872.636719 1947.183594 L 1859.703125 1961.96875 L 1863.398438 1929.316406 L 1867.71875 1897.28125 L 1832.601562 1897.28125 Z M 1832.601562 1961.96875 "/>
<path style=" stroke:none;fill-rule:nonzero;fill:rgb(0%,0%,0%);fill-opacity:1;" d="M 1125.429688 1989.066406 C 1118.652344 2021.101562 1119.882812 2026.636719 1134.050781 2026.636719 C 1143.917969 2026.636719 1145.769531 2024.183594 1142.683594 2015.550781 C 1140.214844 2010 1135.898438 1996.453125 1134.050781 1986.601562 L 1129.75 1968.117188 Z M 1125.429688 1989.066406 "/>
<path style=" stroke:none;fill-rule:nonzero;fill:rgb(0%,0%,0%);fill-opacity:1;" d="M 948.636719 2115.347656 C 948.636719 2150.453125 951.097656 2174.480469 954.800781 2174.480469 C 958.496094 2174.480469 960.96875 2152.296875 960.96875 2119.652344 C 960.96875 2088.851562 958.496094 2062.363281 954.800781 2060.519531 C 951.097656 2058.050781 948.636719 2077.769531 948.636719 2115.347656 Z M 948.636719 2115.347656 "/>
<path style=" stroke:none;fill-rule:nonzero;fill:rgb(0%,0%,0%);fill-opacity:1;" d="M 708.398438 2122.117188 L 708.398438 2174.480469 L 739.816406 2174.480469 C 758.917969 2174.480469 769.382812 2172.015625 766.917969 2168.316406 C 765.066406 2164.617188 752.132812 2162.164062 738.585938 2162.164062 C 715.183594 2162.164062 713.949219 2160.933594 715.800781 2144.917969 C 717.636719 2130.75 721.332031 2127.667969 742.28125 2124.585938 L 766.917969 2120.882812 L 741.050781 2119.652344 C 715.800781 2119.03125 714.5625 2117.800781 714.5625 2100.5625 C 714.5625 2083.316406 715.800781 2082.082031 738.585938 2082.082031 C 752.132812 2082.082031 765.066406 2079 766.917969 2075.917969 C 769.382812 2072.214844 758.917969 2069.769531 739.816406 2069.769531 L 708.398438 2069.769531 Z M 708.398438 2122.117188 "/>
<path style=" stroke:none;fill-rule:nonzero;fill:rgb(0%,0%,0%);fill-opacity:1;" d="M 1242.46875 2115.96875 C 1230.769531 2169.550781 1230.148438 2176.332031 1237.546875 2172.015625 C 1240.617188 2170.164062 1244.933594 2156 1246.785156 2140.601562 C 1249.25 2125.816406 1253.5625 2111.652344 1256.015625 2110.414062 C 1258.484375 2108.570312 1265.882812 2122.117188 1272.652344 2140.601562 C 1278.816406 2159.082031 1285.597656 2174.480469 1287.4375 2174.480469 C 1289.28125 2174.480469 1296.066406 2159.082031 1302.214844 2140.601562 C 1309 2122.117188 1316.398438 2108.570312 1318.851562 2110.414062 C 1321.316406 2111.652344 1325.636719 2125.816406 1328.101562 2140.601562 C 1329.949219 2156 1334.25 2170.164062 1337.332031 2172.015625 C 1345.347656 2176.332031 1343.496094 2159.082031 1331.183594 2109.800781 L 1320.703125 2066.683594 L 1306.535156 2104.867188 C 1298.53125 2126.429688 1289.898438 2143.683594 1287.4375 2143.683594 C 1284.984375 2143.683594 1276.96875 2127.050781 1269.582031 2106.71875 C 1262.183594 2086.398438 1255.402344 2069.769531 1254.183594 2069.769531 C 1252.949219 2069.769531 1248.015625 2090.703125 1242.46875 2115.96875 Z M 1242.46875 2115.96875 "/>
<path style=" stroke:none;fill-rule:nonzero;fill:rgb(0%,0%,0%);fill-opacity:1;" d="M 1650.882812 2122.117188 L 1650.882812 2174.480469 L 1676.132812 2174.480469 C 1690.917969 2174.480469 1699.546875 2172.015625 1697.082031 2168.316406 C 1695.230469 2164.617188 1686.601562 2162.164062 1677.984375 2162.164062 C 1663.816406 2162.164062 1663.199219 2160.933594 1663.199219 2115.96875 C 1663.199219 2089.46875 1660.734375 2069.769531 1657.03125 2069.769531 C 1653.347656 2069.769531 1650.882812 2091.316406 1650.882812 2122.117188 Z M 1650.882812 2122.117188 "/>
<path style=" stroke:none;fill-rule:nonzero;fill:rgb(0%,0%,0%);fill-opacity:1;" d="M 1940.398438 2117.199219 C 1936.082031 2140.601562 1931.164062 2162.785156 1929.316406 2166.46875 C 1928.082031 2170.785156 1929.933594 2174.480469 1933 2174.480469 C 1936.703125 2174.480469 1942.867188 2158.464844 1947.183594 2138.75 L 1954.570312 2103.636719 L 1970.585938 2139.984375 L 1985.984375 2176.332031 L 2002.617188 2139.984375 L 2018.636719 2103.636719 L 2026.636719 2138.75 C 2030.949219 2158.464844 2037.117188 2174.480469 2040.800781 2174.480469 C 2043.882812 2174.480469 2045.117188 2170.785156 2043.882812 2166.46875 C 2042.03125 2162.785156 2037.117188 2140.601562 2032.800781 2117.199219 C 2027.867188 2094.398438 2022.332031 2075.917969 2019.867188 2075.917969 C 2018.015625 2075.917969 2009.398438 2092.550781 2002 2112.882812 C 1994.601562 2133.199219 1987.214844 2149.835938 1986.601562 2149.835938 C 1985.984375 2149.835938 1978.597656 2133.199219 1971.199219 2112.882812 C 1963.800781 2092.550781 1955.183594 2075.917969 1953.332031 2075.917969 C 1950.867188 2075.917969 1945.332031 2094.398438 1940.398438 2117.199219 Z M 1940.398438 2117.199219 "/>
<path style=" stroke:none;fill-rule:nonzero;fill:rgb(0%,0%,0%);fill-opacity:1;" d="M 1712.480469 2088.230469 C 1712.480469 2091.316406 1715.5625 2094.398438 1718.636719 2094.398438 C 1722.332031 2094.398438 1724.800781 2091.316406 1724.800781 2088.230469 C 1724.800781 2084.546875 1722.332031 2082.082031 1718.636719 2082.082031 C 1715.5625 2082.082031 1712.480469 2084.546875 1712.480469 2088.230469 Z M 1712.480469 2088.230469 "/>
<path style=" stroke:none;fill-rule:nonzero;fill:rgb(0%,0%,0%);fill-opacity:1;" d="M 788.480469 2111.03125 C 788.480469 2114.117188 792.800781 2121.503906 797.71875 2127.667969 C 805.734375 2138.132812 805.734375 2141.835938 797.097656 2154.769531 C 784.785156 2173.867188 791.5625 2181.25 804.496094 2162.785156 L 814.347656 2149.214844 L 823.597656 2161.546875 C 828.519531 2168.933594 835.296875 2174.480469 838.382812 2174.480469 C 842.066406 2174.480469 839 2167.082031 832.835938 2157.230469 C 820.515625 2140.601562 820.515625 2139.984375 832.835938 2123.347656 C 839.601562 2114.117188 842.066406 2106.71875 838.382812 2106.71875 C 835.296875 2106.71875 827.898438 2112.882812 822.984375 2119.652344 L 814.347656 2132.597656 L 805.734375 2119.652344 C 797.71875 2106.71875 788.480469 2102.402344 788.480469 2111.03125 Z M 788.480469 2111.03125 "/>
<path style=" stroke:none;fill-rule:nonzero;fill:rgb(0%,0%,0%);fill-opacity:1;" d="M 862.398438 2160.316406 L 862.398438 2211.4375 L 779.230469 2211.4375 C 728.117188 2211.4375 696.082031 2213.898438 696.082031 2217.601562 C 696.082031 2221.917969 968.347656 2223.769531 1499.96875 2223.769531 C 2031.570312 2223.769531 2303.835938 2221.917969 2303.835938 2217.601562 C 2303.835938 2213.28125 2060.519531 2211.4375 1586.199219 2211.4375 L 868.5625 2211.4375 L 868.5625 2190.496094 C 868.5625 2169.550781 869.183594 2168.933594 889.503906 2172.636719 C 907.363281 2175.101562 912.296875 2173.25 921.535156 2159.082031 C 931.398438 2143.683594 931.398438 2140.601562 923.382812 2125.816406 C 916 2112.882812 909.835938 2109.800781 888.265625 2109.800781 L 862.398438 2109.183594 Z M 915.382812 2135.050781 C 920.296875 2154.148438 911.683594 2164 893.199219 2160.933594 C 860.550781 2156.617188 864.25 2119.03125 896.902344 2119.03125 C 907.363281 2119.03125 912.296875 2123.347656 915.382812 2135.050781 Z M 915.382812 2135.050781 "/>
<path style=" stroke:none;fill-rule:nonzero;fill:rgb(0%,0%,0%);fill-opacity:1;" d="M 989.296875 2116.582031 C 968.347656 2136.898438 983.75 2174.480469 1012.703125 2174.480469 C 1029.949219 2174.480469 1047.199219 2156.617188 1047.199219 2139.363281 C 1047.199219 2112.265625 1008.398438 2096.867188 989.296875 2116.582031 Z M 1033.652344 2142.449219 C 1031.183594 2165.230469 1002.230469 2169.550781 991.148438 2149.214844 C 984.984375 2136.898438 985.601562 2133.816406 997.917969 2123.96875 C 1016.398438 2109.183594 1036.734375 2119.03125 1033.652344 2142.449219 Z M 1033.652344 2142.449219 "/>
<path style=" stroke:none;fill-rule:nonzero;fill:rgb(0%,0%,0%);fill-opacity:1;" d="M 1065.683594 2141.214844 C 1065.683594 2159.703125 1068.769531 2174.480469 1071.835938 2174.480469 C 1075.535156 2174.480469 1078 2163.398438 1078 2149.835938 C 1078 2133.199219 1081.082031 2123.347656 1087.230469 2121.503906 C 1101.402344 2115.96875 1098.332031 2107.949219 1081.082031 2107.949219 C 1066.296875 2107.949219 1065.683594 2110.414062 1065.683594 2141.214844 Z M 1065.683594 2141.214844 "/>
<path style=" stroke:none;fill-rule:nonzero;fill:rgb(0%,0%,0%);fill-opacity:1;" d="M 1119.265625 2117.800781 C 1092.785156 2146.769531 1122.96875 2184.949219 1160.546875 2170.785156 C 1177.800781 2164 1171.015625 2157.851562 1148.214844 2158.464844 C 1134.667969 2159.082031 1124.199219 2156 1122.96875 2151.066406 C 1121.117188 2146.148438 1128.515625 2143.683594 1148.214844 2143.683594 C 1179.015625 2143.683594 1185.183594 2134.4375 1166.703125 2116.582031 C 1153.769531 2103.636719 1131.597656 2104.25 1119.265625 2117.800781 Z M 1164.230469 2131.363281 C 1164.230469 2135.050781 1154.382812 2137.519531 1142.683594 2137.519531 C 1119.265625 2137.519531 1114.347656 2129.515625 1131.597656 2119.652344 C 1143.296875 2113.496094 1164.230469 2120.882812 1164.230469 2131.363281 Z M 1164.230469 2131.363281 "/>
<path style=" stroke:none;fill-rule:nonzero;fill:rgb(0%,0%,0%);fill-opacity:1;" d="M 1365.050781 2116.582031 C 1344.117188 2136.898438 1359.515625 2174.480469 1388.464844 2174.480469 C 1405.71875 2174.480469 1422.96875 2156.617188 1422.96875 2139.363281 C 1422.96875 2112.265625 1384.148438 2096.867188 1365.050781 2116.582031 Z M 1409.402344 2142.449219 C 1406.949219 2165.230469 1378 2169.550781 1366.898438 2149.214844 C 1360.75 2136.898438 1361.363281 2133.816406 1373.683594 2123.96875 C 1392.164062 2109.183594 1412.484375 2119.03125 1409.402344 2142.449219 Z M 1409.402344 2142.449219 "/>
<path style=" stroke:none;fill-rule:nonzero;fill:rgb(0%,0%,0%);fill-opacity:1;" d="M 1441.4375 2141.835938 C 1441.4375 2159.703125 1444.519531 2174.480469 1447.601562 2174.480469 C 1451.296875 2174.480469 1453.769531 2163.398438 1453.769531 2149.214844 C 1453.769531 2129.515625 1456.214844 2123.347656 1466.082031 2120.882812 C 1484.5625 2115.96875 1480.867188 2107.332031 1459.917969 2107.949219 C 1442.050781 2108.570312 1441.4375 2109.183594 1441.4375 2141.835938 Z M 1441.4375 2141.835938 "/>
<path style=" stroke:none;fill-rule:nonzero;fill:rgb(0%,0%,0%);fill-opacity:1;" d="M 1492.570312 2122.734375 C 1483.332031 2137.519531 1483.332031 2140.601562 1491.332031 2155.382812 C 1501.800781 2174.480469 1525.214844 2178.800781 1543.082031 2165.851562 C 1554.785156 2157.230469 1553.550781 2156.617188 1528.296875 2157.851562 C 1511.050781 2158.464844 1500.582031 2156 1498.734375 2151.066406 C 1496.882812 2146.148438 1504.882812 2143.683594 1527.066406 2143.683594 C 1554.164062 2143.683594 1557.867188 2142.449219 1554.164062 2132.597656 C 1544.316406 2103.636719 1509.199219 2098.101562 1492.570312 2122.734375 Z M 1538.769531 2129.515625 C 1540 2135.050781 1533.835938 2137.519531 1519.050781 2137.519531 C 1498.117188 2137.519531 1491.949219 2132.597656 1501.199219 2122.734375 C 1507.96875 2115.96875 1535.683594 2121.503906 1538.769531 2129.515625 Z M 1538.769531 2129.515625 "/>
<path style=" stroke:none;fill-rule:nonzero;fill:rgb(0%,0%,0%);fill-opacity:1;" d="M 1712.480469 2140.601562 C 1712.480469 2159.082031 1715.5625 2174.480469 1718.636719 2174.480469 C 1722.332031 2174.480469 1724.800781 2159.082031 1724.800781 2140.601562 C 1724.800781 2122.117188 1722.332031 2106.71875 1718.636719 2106.71875 C 1715.5625 2106.71875 1712.480469 2122.117188 1712.480469 2140.601562 Z M 1712.480469 2140.601562 "/>
<path style=" stroke:none;fill-rule:nonzero;fill:rgb(0%,0%,0%);fill-opacity:1;" d="M 1743.28125 2111.652344 C 1743.28125 2114.734375 1749.4375 2131.363281 1756.214844 2148 L 1769.769531 2177.5625 L 1783.933594 2146.769531 C 1799.332031 2112.265625 1801.183594 2106.71875 1793.800781 2106.71875 C 1790.71875 2106.71875 1784.550781 2118.417969 1779.617188 2132.597656 L 1771.617188 2157.851562 L 1761.769531 2135.667969 C 1750.667969 2110.414062 1743.28125 2101.183594 1743.28125 2111.652344 Z M 1743.28125 2111.652344 "/>
<path style=" stroke:none;fill-rule:nonzero;fill:rgb(0%,0%,0%);fill-opacity:1;" d="M 1820.902344 2116.582031 C 1799.949219 2136.898438 1815.347656 2174.480469 1844.296875 2174.480469 C 1852.316406 2174.480469 1862.164062 2170.785156 1865.867188 2165.851562 C 1871.402344 2159.082031 1868.332031 2157.851562 1850.464844 2158.464844 C 1836.917969 2159.082031 1826.4375 2156 1825.199219 2151.066406 C 1823.363281 2146.148438 1830.75 2143.683594 1850.464844 2143.683594 C 1881.265625 2143.683594 1887.417969 2134.4375 1867.71875 2117.199219 C 1853.546875 2104.25 1833.214844 2103.636719 1820.902344 2116.582031 Z M 1866.480469 2131.363281 C 1866.480469 2135.050781 1856.617188 2137.519531 1844.917969 2137.519531 C 1821.515625 2137.519531 1816.585938 2129.515625 1833.835938 2119.652344 C 1845.535156 2113.496094 1866.480469 2120.882812 1866.480469 2131.363281 Z M 1866.480469 2131.363281 "/>
<path style=" stroke:none;fill-rule:nonzero;fill:rgb(0%,0%,0%);fill-opacity:1;" d="M 2063.601562 2115.96875 C 2051.902344 2129.515625 2054.363281 2157.230469 2067.296875 2166.46875 C 2084.546875 2178.800781 2107.949219 2173.867188 2118.417969 2155.382812 C 2126.429688 2140.601562 2126.429688 2137.519531 2117.199219 2122.734375 C 2104.867188 2104.25 2075.917969 2100.5625 2063.601562 2115.96875 Z M 2109.800781 2125.816406 C 2112.265625 2128.902344 2112.265625 2138.75 2110.414062 2147.382812 C 2107.332031 2157.851562 2102.402344 2162.164062 2091.933594 2162.164062 C 2073.453125 2162.164062 2061.75 2148 2066.683594 2131.363281 C 2071 2117.800781 2102.402344 2113.496094 2109.800781 2125.816406 Z M 2109.800781 2125.816406 "/>
<path style=" stroke:none;fill-rule:nonzero;fill:rgb(0%,0%,0%);fill-opacity:1;" d="M 2143.683594 2141.214844 C 2143.683594 2159.703125 2146.769531 2174.480469 2149.835938 2174.480469 C 2153.535156 2174.480469 2156 2163.398438 2156 2149.835938 C 2156 2133.199219 2159.082031 2123.347656 2165.230469 2121.503906 C 2179.402344 2115.96875 2176.332031 2107.949219 2159.082031 2107.949219 C 2144.296875 2107.949219 2143.683594 2110.414062 2143.683594 2141.214844 Z M 2143.683594 2141.214844 "/>
<path style=" stroke:none;fill-rule:nonzero;fill:rgb(0%,0%,0%);fill-opacity:1;" d="M 2197.265625 2117.800781 C 2170.785156 2146.769531 2200.96875 2184.949219 2238.546875 2170.785156 C 2255.800781 2164 2249.015625 2157.851562 2226.214844 2158.464844 C 2212.667969 2159.082031 2202.199219 2156 2200.96875 2151.066406 C 2199.117188 2146.148438 2206.515625 2143.683594 2226.214844 2143.683594 C 2257.015625 2143.683594 2263.183594 2134.4375 2244.703125 2116.582031 C 2231.769531 2103.636719 2209.597656 2104.25 2197.265625 2117.800781 Z M 2242.230469 2131.363281 C 2242.230469 2135.050781 2232.382812 2137.519531 2220.683594 2137.519531 C 2197.265625 2137.519531 2192.347656 2129.515625 2209.597656 2119.652344 C 2221.296875 2113.496094 2242.230469 2120.882812 2242.230469 2131.363281 Z M 2242.230469 2131.363281 "/>
<path style=" stroke:none;fill-rule:nonzero;fill:rgb(0%,0%,0%);fill-opacity:1;" d="M 1575.117188 2172.636719 C 1570.800781 2196.652344 1574.496094 2197.265625 1586.199219 2175.101562 C 1594.199219 2159.082031 1594.199219 2156 1586.816406 2156 C 1582.503906 2156 1576.96875 2163.398438 1575.117188 2172.636719 Z M 1575.117188 2172.636719 "/>
<path style=" stroke:none;fill-rule:nonzero;fill:rgb(0%,0%,0%);fill-opacity:1;" d="M 2273.03125 2168.316406 C 2273.03125 2171.398438 2277.347656 2174.480469 2282.28125 2174.480469 C 2287.199219 2174.480469 2291.519531 2171.398438 2291.519531 2168.316406 C 2291.519531 2164.617188 2287.199219 2162.164062 2282.28125 2162.164062 C 2277.347656 2162.164062 2273.03125 2164.617188 2273.03125 2168.316406 Z M 2273.03125 2168.316406 "/>
</g>
</svg>
